PathFileType	4	(X/Y/Z)	C:/Users/beibeiliu/ov580/test_trc/User2\sequence.26_training_dense_left.trc
DataRate	CameraRate	NumFrames	NumMarkers	Units	OrigDataRate	OrigDataStartFrame	OrigNumFrames
120	120	20	19	mm	120	55	109
Frame#	Time	ThumbCMC			ThumbMCP			ThumbIP			ThumbTip			IndexMCP			IndexPIP			IndexTip			MiddleMCP			MiddlePIP			MiddleTip			RingMCP			RingPIP			RingTip			PinkyMCP			PinkyPIP			PinkyTip			BackHand1			BackHand2			BackHand3	
		X0	Y0	Z0	X1	Y1	Z1	X2	Y2	Z2	X3	Y3	Z3	X4	Y4	Z4	X5	Y5	Z5	X6	Y6	Z6	X7	Y7	Z7	X8	Y8	Z8	X9	Y9	Z9	X10	Y10	Z10	X11	Y11	Z11	X12	Y12	Z12	X13	Y13	Z13	X14	Y14	Z14	X15	Y15	Z15	X16	Y16	Z16	X17	Y17	Z17	X18	Y18	Z18	
54	0.45	-233.26	30.274	-34.1309	-220.885	34.1577	-59.0364	-209.201	45.5721	-91.393	-201.826	46.9574	-113.161	-286.603	33.8681	-97.9811	-282.279	18.5857	-130.239	-256.743	-0.734151	-125.355	-304.196	16.1505	-102.296	-287.531	-2.25551	-130.244	-257.462	-16.2954	-108.632	-312.67	-3.4664	-92.9292	-301.69	-19.77	-120.362	-270.638	-28.5391	-109.091	-318.938	-22.618	-73.298	-327.042	-31.6005	-101.905	-314.583	-42.4278	-126.518	-300.83	1.40758	-34.0126	-290.715	-0.851645	-2.18767	-272.448	29.8325	-28.2747	
55	0.458333	-223.405	19.7791	-30.3487	-208.753	24.3911	-59.2419	-197.934	30.6114	-88.2529	-184.129	35.667	-111.366	-272.335	47.3044	-90.4238	-275.144	36.2121	-123.155	-256.477	6.54401	-121.339	-292.542	39.0082	-97.1495	-286.036	18.1431	-127.907	-266.52	-9.05332	-108.925	-306.61	23.2178	-86.9871	-303.874	3.74849	-118.153	-278.883	-16.1258	-107.487	-321.912	1.91787	-67.6268	-333.252	0.643042	-94.9135	-333.706	-14.3384	-125.586	-291.559	17.7395	-30.4855	-283.391	13.6492	-1.19587	-259.858	35.1056	-20.3224	
56	0.466667	-215.162	17.4471	-28.2405	-199.778	19.2375	-54.716	-184.764	26.4735	-83.9125	-173.858	27.3377	-104.484	-255.718	60.7327	-86.8553	-258.444	51.5885	-118.167	-247.681	19.4857	-117.45	-279.774	55.9686	-92.8587	-278.362	33.3694	-121.779	-262.578	2.75405	-101.274	-296.763	41.4918	-82.7253	-296.557	24.7728	-113.919	-274.1	-0.68839	-102.583	-312.688	22.5234	-63.3761	-328.368	27.2492	-88.6658	-338.159	22.4402	-118.463	-288.696	30.3208	-28.6955	-279.582	19.1696	5.82429	-247.877	37.8735	-19.6377	
57	0.475	-208.704	15.0403	-20.7754	-193.52	17.9632	-47.6394	-178.878	26.1568	-79.917	-166.789	27.7773	-99.9647	-239.992	67.473	-85.3009	-243.839	56.8278	-113.884	-233.443	23.4384	-109.938	-265.131	65.568	-88.9098	-263.995	48.6328	-118.954	-249.731	11.6015	-99.7449	-282.862	54.7467	-86.0875	-279.593	40.1822	-113.944	-264.325	11.4459	-104.469	-303.621	35.4047	-64.057	-319.148	44.4777	-91.0366	-325.971	47.7084	-115.409	-278.306	34.3254	-25.8719	-269.423	25.0374	4.66239	-240.553	40.0858	-12.6144	
58	0.483333	-195.788	15.064	-16.6003	-182.196	16.0722	-44.1205	-163.392	21.5998	-70.4018	-150.664	24.9702	-94.5502	-224.375	65.9481	-81.4513	-224.944	57.8361	-113.031	-216.688	19.7146	-109.073	-248.136	64.9914	-87.3779	-242.656	46.3611	-121.103	-232.081	11.2235	-106.029	-267.445	54.4584	-85.0696	-262.456	40.7439	-116.018	-247.789	12.0467	-108.35	-289.753	37.0626	-70.0822	-296.504	46.0591	-97.0877	-300.115	48.1575	-126.722	-264.238	38.2249	-30.0873	-264.414	23.9421	3.22724	-232.593	41.3802	-13.1348	
59	0.491667	-184.073	9.82869	-12.529	-167.674	8.93819	-39.4712	-147.667	12.1852	-65.6777	-136.009	13.198	-90.1975	-201.996	60.4397	-86.382	-197.284	49.6291	-117.099	-197.52	18.1071	-118.707	-227.722	61.4171	-92.5841	-220.141	49.3944	-124.69	-216.425	8.64286	-121.646	-247.632	50.2357	-91.7676	-238.664	37.1795	-120.383	-228.524	2.04908	-115.003	-269.092	28.3914	-78.5834	-271.906	32.982	-113.126	-267.371	29.8837	-135.478	-255.695	32.061	-30.8309	-255.989	24.3427	-0.868651	-216.544	38.7644	-14.3817	
60	0.5	-178.052	11.2109	-8.98237	-160.511	9.98374	-33.879	-136.859	13.7737	-63.7079	-127.837	13.1202	-84.1711	-191.828	56.269	-80.2908	-187.504	54.3848	-114.506	-185.536	19.8533	-130.68	-210.378	61.6859	-89.764	-206.548	55.2877	-124.313	-197.308	16.9423	-140.79	-235.775	50.8623	-90.5032	-230.027	41.9068	-122.462	-216.774	11.5529	-129.014	-255.103	28.0668	-83.7578	-255.515	25.8776	-114.328	-249.848	20.9066	-139.113	-243.843	36.2162	-35.9896	-246.709	26.648	-0.406436	-213.892	37.4443	-15.5686	
61	0.508333	-174.745	15.0935	-8.29884	-153.997	13.595	-30.5839	-133.248	15.6184	-57.984	-120.659	16.6171	-82.3986	-186.678	58.7174	-80.6887	-179.48	59.2295	-114.393	-173.403	37.7721	-139.248	-202.947	64.6799	-91.1647	-197.242	60.8218	-126.917	-190.28	35.5289	-152.757	-232.585	54.2808	-89.976	-223.52	51.6239	-122.205	-215.827	24.3344	-143.161	-253.046	33.5809	-87.0082	-247.409	29.5551	-115.912	-238.751	21.2594	-138.209	-241.052	41.5791	-36.6018	-243.141	33.759	-3.68747	-204.576	43.8172	-11.8508	
62	0.516667	-174.591	17.3163	-6.16793	-152.469	18.5378	-31.5315	-135.672	18.5006	-56.8422	-124.4	20.1104	-83.6354	-180.769	59.6639	-84.4701	-173.63	60.9877	-112.052	-171.196	48.5946	-144.045	-199.465	64.3686	-89.9763	-189.078	64.2574	-126.134	-187.26	50.9743	-157.176	-228.216	56.8883	-92.1398	-220.414	58.1545	-119.947	-213.435	42.4374	-151.232	-248.835	35.8139	-85.497	-244.823	30.6413	-114.577	-237.712	23.1639	-140.078	-237.093	45.6053	-30.6797	-238.937	38.212	-1.88595	-203.936	45.87	-13.6242	
63	0.525	-175.025	18.9165	-6.06477	-152.21	19.7337	-28.7549	-137.214	21.0102	-58.3636	-128.32	20.2046	-84.3026	-177.337	57.0532	-83.4575	-169.399	59.1092	-113.189	-163.553	55.4005	-142.073	-196.688	63.5949	-91.8592	-186.216	65.2952	-121.3	-177.19	59.3209	-154.699	-224.789	56.1768	-88.0953	-217.585	60.2596	-119.067	-212.999	56.2893	-148.681	-244.381	34.8484	-82.9243	-242.797	27.1406	-112.573	-231.414	19.2107	-137.036	-233.773	46.6768	-32.2795	-243.025	41.9019	-0.14898	-201.211	49.4259	-14.8142	
64	0.533333	-176.089	20.794	-5.77527	-151.199	19.246	-25.6119	-135.712	23.9241	-62.149	-131.831	20.2779	-84.1258	-173.578	55.5177	-84.5723	-163.533	57.6152	-111.853	-155.584	56.6843	-135.091	-190.207	61.626	-89.2923	-180.858	64.1349	-122.002	-172.266	63.628	-153.079	-223.196	56.0783	-90.8219	-216.636	59.9958	-116.336	-208.14	61.3772	-146.439	-241.127	31.0381	-84.9145	-240.126	23.1467	-112.466	-237.915	15.8598	-135.568	-233.728	46.8849	-33.1395	-238.775	41.7125	-1.5353	-199.538	47.0137	-14.108	
65	0.541667	-174.186	20.3326	-4.80022	-151.798	23.1466	-30.616	-139.009	21.9533	-58.7135	-132.669	22.3236	-84.7301	-170.359	52.329	-79.3198	-160.914	54.1174	-109.77	-151.689	56.7698	-137.048	-186.718	58.3391	-89.6411	-179.141	61.3322	-121.057	-171.336	63.9379	-148.609	-215.859	51.9615	-91.3444	-212.695	56.5418	-118.258	-208.629	61.3056	-145.466	-242.269	27.862	-87.9818	-246.964	19.2188	-111.162	-241.138	18.279	-135.612	-231.764	44.5556	-32.2526	-239.242	44.9256	-4.62739	-200.991	48.3395	-13.6724	
66	0.55	-171.786	21.0144	-4.78341	-149.989	23.7549	-27.7698	-139.344	25.9832	-61.8218	-130.614	25.2175	-85.9781	-168.781	50.0162	-79.783	-158.926	51.9919	-107.978	-149.829	54.1151	-135.637	-188.063	56.3383	-92.2191	-176.071	58.2117	-115.934	-167.407	61.5485	-150.563	-217.821	49.7705	-92.5455	-216.812	54.918	-117.712	-209.001	59.6508	-142.108	-248.444	27.8744	-81.6696	-252.014	21.7161	-107.461	-260.562	21.5014	-130.341	-229.998	45.7922	-32.5569	-237.059	43.5762	-5.01345	-198.705	48.9292	-13.9446	
67	0.558333	-171.428	23.7535	-4.57787	-151.489	24.9603	-27.0923	-136.252	29.1325	-60.662	-130.4	27.4564	-84.6919	-174.196	48.9314	-82.9684	-163.022	50.2145	-108.488	-154.332	53.7706	-135.133	-192.536	53.3939	-92.2086	-181.309	56.7167	-121.294	-174.058	60.6063	-150.046	-221.323	48.2421	-91.7313	-218.471	52.6814	-119.885	-212.614	58.3283	-145.469	-254.02	28.0671	-82.933	-262.57	25.692	-105.646	-269.916	30.5003	-128.611	-232.561	46.2812	-33.3329	-236.027	43.6955	-5.28376	-199.496	48.5372	-15.6891	
68	0.566667	-172.106	24.7511	-2.84903	-149.445	26.7743	-23.6201	-134.041	29.1518	-51.3996	-117.832	28.1286	-73.1372	-176.13	48.8511	-86.2535	-168.516	51.6575	-114.429	-165.815	53.6026	-138.725	-197.192	53.9567	-93.2115	-189.843	55.2265	-120.783	-179.563	59.3454	-149.729	-223.265	47.0304	-89.4792	-222.156	49.9647	-117.6	-220.48	54.6458	-143.501	-259.24	30.1386	-76.6675	-266.301	31.9634	-100.3	-273.969	40.0268	-119.56	-233.255	45.8625	-35.8602	-240.152	46.5472	-3.24749	-202.358	48.1478	-17.4003	
69	0.575	-174.931	24.8493	-2.23234	-149.188	26.9833	-22.6117	-125.291	29.3128	-45.2744	-107.376	26.0299	-60.7956	-174.955	49.661	-85.9794	-171.727	51.383	-114.972	-169.518	54.0806	-139.86	-198.854	54.6013	-96.033	-193.313	56.8424	-121.613	-184.16	60.8848	-153.314	-227.35	47.198	-91.1032	-225.426	50.1597	-115.482	-217.795	53.8736	-142.759	-260.066	34.6987	-74.8457	-267.12	37.6288	-96.5335	-277.504	46.4354	-111.311	-235.7	47.709	-30.9621	-240.2	46.3218	1.62087	-201.864	49.0772	-15.7995	
70	0.583333	-168.64	26.5351	-0.98291	-148.621	25.1718	-19.6699	-119.876	26.3914	-40.9812	-100.649	24.3464	-55.5027	-174.047	51.2939	-85.1377	-168.638	52.7364	-108.227	-169.079	56.7888	-140.815	-194.946	55.0397	-91.0905	-191.682	58.0818	-120.703	-181.531	61.8753	-149.745	-226.175	49.5206	-88.6171	-220.674	52.6684	-117.736	-217.702	58.6133	-145.705	-259.455	36.0891	-74.041	-269.484	36.8202	-91.5073	-276.746	49.5137	-113.513	-233.938	49.0348	-32.4424	-232.023	47.4176	2.0469	-198.507	49.9853	-14.2023	
71	0.591667	-165.085	28.3906	-2.73861	-142.233	23.5819	-14.4315	-118.825	22.8801	-39.91	-96.2777	18.6908	-52.2885	-177.266	50.7498	-84.8016	-169.218	52.8954	-111.524	-166.848	56.9904	-139.535	-194.432	56.7452	-88.8225	-186.605	58.6517	-118.115	-180.326	64.7578	-150.955	-222.799	50.2933	-88.5979	-223.429	53.3583	-110.109	-221.223	62.185	-142.227	-255.919	32.937	-68.111	-267.193	33.5328	-91.9964	-278.054	44.8392	-110.949	-230.297	49.6014	-31.6305	-230.985	50.0889	2.65744	-192.301	51.8399	-14.2803	
72	0.6	-163.461	27.158	2.78685	-141.271	22.5894	-14.7988	-114.075	20.905	-36.9573	-97.7217	15.8493	-53.1625	-175.092	51.5312	-83.5695	-169.995	53.6924	-108.524	-164.313	57.0769	-134.057	-194.999	57.4458	-90.857	-189.11	60.2536	-120.915	-182.85	65.4022	-148.135	-225.035	50.9398	-86.4102	-223.761	55.6333	-111.962	-221.208	63.103	-139.915	-252.293	32.4384	-69.9647	-266.381	28.9243	-90.2482	-280.37	36.5742	-108.124	-230.612	51.3127	-27.2393	-228.555	51.3892	7.20598	-194.216	52.18	-11.3076	
73	0.608333	-165.21	26.5286	2.32306	-143.316	22.3675	-18.636	-114.848	18.5636	-40.9678	-95.4703	11.4014	-49.6004	-172.915	50.9215	-80.9785	-165.216	54.1248	-108.351	-165.309	58.4439	-137.103	-192.071	56.5932	-87.8699	-188.37	60.0785	-116.497	-181.781	67.193	-149.901	-223.931	50.5202	-84.567	-224.931	53.6543	-113.96	-226.588	60.768	-141.378	-253.14	31.8883	-74.8904	-265.588	26.9233	-93.3907	-272.573	33.2733	-116.484	-226.272	50.4442	-30.007	-232.399	50.635	1.85004	-194.235	51.8073	-13.688	
